<?xml version="1.0" encoding="UTF-8"?>
<svg width="20px" height="20px" viewBox="0 0 20 20" version="1.1" xmlns="http://www.w3.org/2000/svg" xmlns:xlink="http://www.w3.org/1999/xlink">
    <title>21AA96F7-547D-469D-B719-229208DCE79F</title>
    <defs>
        <rect id="path-1" x="0" y="0" width="20" height="20" rx="10"></rect>
        <path d="M9.19878131,7.02631579 C10.6760637,7.02817175 11.8731852,8.25241117 11.875,9.76315789 C11.875,11.2746741 10.6768161,12.5 9.19878131,12.5 C7.72074654,12.5 6.52256262,11.2746741 6.52256262,9.76315789 C6.52256262,8.25164174 7.72074654,7.02631579 9.19878131,7.02631579 Z M3.18373086,9.05072233 C3.21963938,9.0332614 3.26217063,9.03851223 3.29298424,9.06421053 C4.04686516,9.59545086 4.92284877,9.91713021 5.83498028,9.99768421 C5.88248396,10.0037897 5.91946043,10.0428292 5.92391308,10.0915789 C5.96604173,10.5350414 6.09455496,10.9653919 6.30187751,11.3572632 C6.31996993,11.3914189 6.31819755,11.4329885 6.29726676,11.4654042 C6.27633598,11.4978199 6.23964918,11.5158123 6.2018281,11.5122105 C4.44334656,11.3475789 3.125,10.6755789 3.125,9.86842105 L3.125,9.86842105 L3.125,9.14589474 C3.12495902,9.10523292 3.14782234,9.06818325 3.18373086,9.05072233 Z M9.19878131,8.07894739 C8.97139135,8.07894739 8.78705537,8.26745906 8.78705536,8.5 L8.78705536,8.5 L8.78705536,9.65789474 C8.78705536,9.71602997 8.74097136,9.76315789 8.68412387,9.76315789 L8.68412387,9.76315789 L8.3753294,9.76315789 C8.29605155,9.76298125 8.22371869,9.80937499 8.18935835,9.88243831 C8.15499801,9.95550163 8.16471631,10.0422505 8.21434456,10.1054737 L8.21434456,10.1054737 L9.03779646,11.1581053 C9.07696784,11.2080077 9.13620712,11.2369813 9.19878131,11.2368426 C9.26135549,11.2369813 9.32059477,11.2080077 9.35976616,11.1581053 L9.35976616,11.1581053 L10.1832181,10.1054737 C10.2328463,10.0422505 10.2425646,9.95550163 10.2082043,9.88243831 C10.1738439,9.80937499 10.1015111,9.76298125 10.0222332,9.76315789 L10.0222332,9.76315789 L9.71343875,9.76315789 C9.65659126,9.76315789 9.61050726,9.71602997 9.61050726,9.65789474 L9.61050726,9.65789474 L9.61050726,8.5 C9.61050725,8.26745906 9.42617127,8.07894739 9.19878131,8.07894739 Z M3.18373086,7.15598548 C3.21963938,7.13852456 3.26217063,7.14377538 3.29298424,7.16947368 C4.14206362,7.75509506 5.13193405,8.0913612 6.15489134,8.14168421 C6.18837108,8.14510722 6.21810143,8.16504804 6.2345113,8.1950871 C6.25092118,8.22512616 6.25193879,8.26147098 6.23723653,8.29242105 C6.06108463,8.66426725 5.9538711,9.06628865 5.921031,9.47810526 C5.91858593,9.5069262 5.90469497,9.53346223 5.88259786,9.55152445 C5.86050075,9.56958667 5.83212942,9.57759591 5.80410083,9.57368421 C4.24818845,9.34968421 3.125,8.71852632 3.125,7.97368421 L3.125,7.97368421 L3.125,7.25115789 C3.12495902,7.21049608 3.14782234,7.17344641 3.18373086,7.15598548 Z M3.18373086,5.26082759 C3.21963938,5.24336667 3.26217063,5.24861749 3.29298424,5.27431579 C4.09049741,5.93873684 5.59412059,6.28947368 7.03680833,6.28947368 C8.47949607,6.28947368 9.9822958,5.93915789 10.779809,5.27515789 C10.8106226,5.24945959 10.8531538,5.24420877 10.8890624,5.26166969 C10.9249709,5.27913062 10.9477932,5.31618029 10.9477932,5.35684211 L10.9477932,5.35684211 L10.9477932,6.07894737 C10.9395295,6.30557635 10.847577,6.52057918 10.6904644,6.68063158 C10.6602464,6.71470096 10.6118967,6.72476043 10.5710639,6.70547368 C10.1411327,6.50120287 9.67284792,6.39516543 9.19878131,6.39473684 C8.17982149,6.39505756 7.21870412,6.87895823 6.59708501,7.70463158 C6.57662519,7.73261027 6.54392416,7.7483847 6.50979911,7.74673684 C4.59939069,7.63684211 3.125,6.93242105 3.125,6.07894737 L3.125,6.07894737 L3.125,5.356 C3.125,5.31533819 3.14782234,5.27828851 3.18373086,5.26082759 Z M7.03680833,2.5 C9.197013,2.5 10.9482049,3.25404674 10.9482049,4.18421053 C10.9482049,5.11437432 9.197013,5.86842105 7.03680833,5.86842105 C4.87660367,5.86842105 3.12541178,5.11437432 3.12541178,4.18421053 C3.12541178,3.25404674 4.87660367,2.5 7.03680833,2.5 Z" id="path-3"></path>
    </defs>
    <g id="Symbols" stroke="none" stroke-width="1" fill="none" fill-rule="evenodd">
        <g id="progress_bar-/-bonus-/-with-inline-indicator" transform="translate(-273.000000, 4.000000)">
            <g id="locker" transform="translate(273.000000, -4.000000)">
                <g id="shapes-/-radius-/-64" opacity="0.87">
                    <g id="color">
                        <mask id="mask-2" fill="white">
                            <use xlink:href="#path-1"></use>
                        </mask>
                        <g id="Mask"></g>
                        <g id="colors-/-04neutral-/-color-steel-800" mask="url(#mask-2)" fill="#1C2026">
                            <rect id="color-steel-800" x="0" y="0" width="20" height="20"></rect>
                        </g>
                    </g>
                </g>
                <g id="icons-/-01interface-/-withdrawal" transform="translate(2.500000, 2.500000)">
                    <mask id="mask-4" fill="white">
                        <use xlink:href="#path-3"></use>
                    </mask>
                    <use id="Mask" fill="#000000" fill-rule="nonzero" xlink:href="#path-3"></use>
                    <g id="colors-/-04neutral-/-color-white-snow" mask="url(#mask-4)" fill="#FFFFFF" fill-rule="evenodd">
                        <rect id="color-white-snow" x="0" y="0" width="15" height="15"></rect>
                    </g>
                </g>
            </g>
        </g>
    </g>
</svg>