<svg xmlns="http://www.w3.org/2000/svg" xmlns:xlink="http://www.w3.org/1999/xlink" x="0px" y="0px" viewBox="-247 386.4 116 21.2"><g><path fill="#F2F2F2" d="M-143.8,394.1h-4.6l-0.1,0.7c-1.2-0.7-2.5-1.1-3.8-1c-3.8,0-7.3,3.5-7.3,7.7c0,4.7,3.4,6.2,5.8,6.2 c0.9,0,1.9-0.2,2.8-0.7l-0.1,0.3h4.6C-146.7,407.3-143.8,394.1-143.8,394.1z M-149.6,400.8c-0.1,1.6-1.4,2.9-3,2.9 c-1.4,0.1-2.7-1-2.8-2.5v-0.3c-0.1-1.8,1.3-3.3,3.1-3.3c1.4,0,2.7,1.1,2.8,2.6C-149.6,400.4-149.6,400.6-149.6,400.8z M-189.1,407.3h-4.9l-1.7-3.3l-2.7,3.3h-5.5l6.2-6.7l-3.3-6.4h4.9l1.5,3.4l2.5-3.4h5.6l-6.1,6.8L-189.1,407.3z M-160.2,398 c0,0.5-0.1,1-0.1,1.5l-1.7,7.8h-4.4l1.5-7.3c0.3-1-0.7-1.8-1.7-1.8c-0.9,0-1.7,0.4-2,2.3l-1.5,6.9h-4.4l1.6-7.3 c0.2-0.8-0.3-1.6-1.1-1.8c-0.1-0.1-0.4-0.1-0.5,0c-0.9,0-1.7,0.4-2.1,2.3l-1.4,6.9h-4.4l2.8-13.2h4.1l-0.4,1.1 c0.9-1,2.2-1.6,3.5-1.6c1.4-0.1,2.8,0.7,3.6,1.9c0.9-1.2,2.5-2,4.1-1.9C-162,393.7-160.2,395.5-160.2,398L-160.2,398z M-131,398 c0,0.5-0.1,1-0.1,1.5l-1.7,7.8h-4.7l1.6-7.3c0.1-0.1,0.1-0.4,0.1-0.5c0.1-0.7-0.4-1.2-1-1.2h-0.3c-0.9,0-1.7,0.4-2.1,2.3l-1.5,6.9 h-4.4l2.8-13.2h4.1l-0.3,1.2c0.9-1.1,2.2-1.7,3.6-1.6C-132.4,393.7-131,395.5-131,398L-131,398z M-209.5,400.1 c0,4.1-3.3,7.5-7.5,7.5h-0.3c-3.7,0-6.8-2.4-6.8-6.4c0-4.1,3.3-7.5,7.5-7.5h0.2C-212.6,393.7-209.5,396.1-209.5,400.1z M-219.7,401 c-0.1,1.4,0.9,2.6,2.4,2.8h0.2c1.8-0.1,3.2-1.6,3-3.4v-0.1c0.1-1.4-1-2.6-2.4-2.8h-0.2C-218.4,397.7-219.7,399.2-219.7,401 C-219.7,401-219.7,401-219.7,401L-219.7,401z M-226,394.1l0.6-2.6h-4.2l-2.2,10.1c-0.9,4.2,1.7,6,5,6c0.4,0,0.7,0,1.2-0.1l0.8-3.7 h-0.8c-1.5,0-2.2-0.6-2-2l0.9-4.6h2.5l0.7-3.1C-223.4,394-226,394.1-226,394.1z M-209.8,407.3l2.8-13.2h4.4l-2.9,13.2H-209.8z M-188.1,407.3l2.8-13.2h4.4l-2.8,13.2H-188.1z M-247,407.3l1-4.8h4.4c0.6,0,1.1-0.3,1.4-0.7c0.4-0.5,0.5-1.2,0.3-1.8l-1.4-6.3 c-0.5-2.2,0.3-4.5,2.1-6c0.9-0.7,2-1.1,3-1.2h7.3l-1.1,4.8h-3.8c-0.7-0.1-1.4,0.2-1.9,0.7c-0.1,0.1-0.3,0.4-0.3,0.6 c-0.1,0.6-0.1,1.2,0,1.7c0,0.1,1.1,5.1,1.1,5.1c0.1,0.6,0.2,1.2,0.3,1.8c0.1,1.5-0.4,3-1.4,4.2c-0.9,1-2.1,1.7-3.5,1.9 c-0.4,0.1-0.8,0.1-1.2,0.1H-247z M-206.2,390.3l-0.5,2.4h4.4l0.5-2.4H-206.2z M-184.4,390.3l-0.5,2.4h4.4l0.5-2.4H-184.4z" class="st0"/></g></svg>